<?xml version="1.0" encoding="utf-8"?>
<!-- Generator: Adobe Illustrator 16.0.0, SVG Export Plug-In . SVG Version: 6.00 Build 0)  -->
<!DOCTYPE svg PUBLIC "-//W3C//DTD SVG 1.1//EN" "http://www.w3.org/Graphics/SVG/1.1/DTD/svg11.dtd">
<svg version="1.1" id="Layer_1" xmlns="http://www.w3.org/2000/svg" xmlns:xlink="http://www.w3.org/1999/xlink" x="0px" y="0px"
	 width="64px" height="64px" viewBox="0 0 64 64" enable-background="new 0 0 64 64" xml:space="preserve">
<path fill-rule="evenodd" clip-rule="evenodd" fill="#7BB32E" d="M52,34c0,1.105-0.895,2-2,2s-2-0.895-2-2c0-1.105,0.895-2,2-2
	S52,32.895,52,34L52,34z M40,34c0,1.105-0.895,2-2,2s-2-0.895-2-2c0-1.105,0.895-2,2-2S40,32.895,40,34L40,34z M14,18.499
	C14,17.12,15.12,16,16.5,16c1.382,0,2.501,1.12,2.501,2.499c0,1.382-1.12,2.5-2.501,2.5C15.12,20.999,14,19.881,14,18.499L14,18.499
	z M29.001,18.499c0-1.379,1.118-2.499,2.5-2.499C32.88,16,34,17.12,34,18.499c0,1.382-1.12,2.5-2.499,2.5
	C30.119,20.999,29.001,19.881,29.001,18.499L29.001,18.499z M58.606,50.27l0.923,3.463c0.41,1.826-0.684,3.666-2.506,4.15
	c-1.064,0.281-2.144,0.041-2.968-0.561c-0.002-0.002,0,0.004-0.002,0l-3.341-2.385C48.613,55.611,46.358,56,44,56
	c-4.896,0-9.36-1.604-12.829-4.236c-0.638-0.334-1.076-0.996-1.076-1.764c0-1.105,0.895-2,2-2c0.468,0,0.892,0.166,1.231,0.436
	c0.005-0.004,0.01-0.012,0.015-0.016C36.172,50.639,39.9,52,44,52c1.554,0,3.045-0.219,4.463-0.584
	c0.216-0.037,0.478-0.098,0.854-0.217c1.357-0.426,2.766-0.148,3.84,0.625l2.345,1.676L54.8,50.873
	c-0.303-1.217,0.044-2.557,1.03-3.465c0.037-0.033,0.061-0.07,0.092-0.104C58.448,44.828,60,41.578,60,38c0-7.73-7.164-14-16-14
	s-16,6.27-16,14c0,0.506,0.034,1.006,0.095,1.498c0.237,3.229-2.124,6.08-5.363,6.41c-0.177,0.016-0.349,0.016-0.521,0.02
	c-2.286-0.156-4.485-0.586-6.55-1.256l-3.714,2.65c-0.002,0.004,0-0.002-0.002,0c-0.824,0.602-1.903,0.842-2.967,0.561
	c-1.823-0.484-2.917-2.324-2.507-4.15l0.953-3.57C2.858,36.34,0,30.968,0,25.001C0,13.401,10.744,4,24,4
	c7.894,0,14.875,3.353,19.248,8.499c0.42,0.369,0.688,0.899,0.688,1.501c0,1.105-0.894,2-2,2c-0.63,0-1.183-0.296-1.551-0.752
	l-0.01,0.01C36.759,10.873,30.778,8,24,8C12.955,8,4,15.612,4,25.001c0,4.87,2.429,9.245,6.293,12.341
	c0.022,0.023,0.029,0.045,0.053,0.064c0.909,0.713,1.256,1.863,1.001,2.916L10.5,43.5l3.445-2.461
	c0.686-0.465,1.573-0.617,2.419-0.33c0.034,0.014,0.063,0.006,0.097,0.016c1.595,0.555,3.29,0.947,5.06,1.137
	c1.272,0.021,2.381-0.914,2.526-2.205c0.017-0.146,0.022-0.291,0.012-0.436c-0.002-0.039,0.01-0.055,0.017-0.082
	C24.046,38.758,24,38.385,24,38c0-9.941,8.955-18,20-18s20,8.059,20,18C64,42.746,61.941,47.051,58.606,50.27L58.606,50.27z"/>
</svg>
