<?xml version="1.0" standalone="no"?>
<!DOCTYPE svg PUBLIC "-//W3C//DTD SVG 20010904//EN"
 "http://www.w3.org/TR/2001/REC-SVG-20010904/DTD/svg10.dtd">
<svg version="1.0" xmlns="http://www.w3.org/2000/svg"
 width="493.000000pt" height="501.000000pt" viewBox="0 0 493.000000 501.000000"
 preserveAspectRatio="xMidYMid meet">

<g transform="translate(0.000000,501.000000) scale(0.100000,-0.100000)"
fill="#000000" stroke="none">
<path d="M1110 4984 c-323 -36 -590 -155 -758 -339 -191 -209 -292 -503 -292
-848 1 -493 214 -869 597 -1052 40 -19 106 -46 147 -60 163 -55 181 -57 661
-65 306 -5 468 -11 505 -20 246 -57 431 -265 457 -513 3 -32 10 -60 14 -63 13
-8 205 15 274 32 169 43 319 118 465 233 221 175 378 445 425 731 21 131 21
838 0 985 -39 271 -137 479 -309 650 -155 154 -338 250 -591 308 -86 20 -121
21 -825 23 -404 1 -751 0 -770 -2z"/>
<path d="M3907 3078 c-23 -325 -178 -662 -418 -905 -227 -231 -496 -372 -816
-428 -98 -17 -439 -32 -495 -21 l-36 6 -4 178 c-5 208 -18 252 -97 325 -84 79
-102 82 -456 82 l-310 0 -12 -75 c-8 -49 -12 -226 -12 -508 -1 -398 1 -442 19
-533 108 -529 530 -902 1079 -954 84 -8 91 -4 91 61 0 162 146 376 311 458
128 63 148 66 504 66 345 0 551 11 665 35 384 81 677 320 803 657 144 381 98
910 -104 1209 -128 191 -322 331 -562 408 -148 47 -143 49 -150 -61z"/>
</g>
</svg>
