<?xml version="1.0" encoding="UTF-8" standalone="no" ?>
<!DOCTYPE svg PUBLIC "-//W3C//DTD SVG 1.1//EN" "http://www.w3.org/Graphics/SVG/1.1/DTD/svg11.dtd">
<svg xmlns="http://www.w3.org/2000/svg" xmlns:xlink="http://www.w3.org/1999/xlink" version="1.1" width="1080" height="1080" viewBox="0 0 1080 1080" xml:space="preserve">
<desc>Created with Fabric.js 5.2.4</desc>
<defs>
</defs>
<rect x="0" y="0" width="100%" height="100%" fill="transparent"></rect>
<g transform="matrix(1 0 0 1 540 540)" id="be6dbc13-72cd-49e9-85fa-36b978a60dc6"  >
<rect style="stroke: none; stroke-width: 1; stroke-dasharray: none; stroke-linecap: butt; stroke-dashoffset: 0; stroke-linejoin: miter; stroke-miterlimit: 4; fill: rgb(255,255,255); fill-rule: nonzero; opacity: 1; visibility: hidden;" vector-effect="non-scaling-stroke"  x="-540" y="-540" rx="0" ry="0" width="1080" height="1080" />
</g>
<g transform="matrix(1 0 0 1 540 540)" id="becabd61-e896-4fb2-afdc-36d27c2c10f7"  >
</g>
<g transform="matrix(14.86 0 0 14.86 540 555.02)"  >
<path style="stroke: rgb(0,0,0); stroke-width: 0; stroke-dasharray: none; stroke-linecap: butt; stroke-dashoffset: 0; stroke-linejoin: miter; stroke-miterlimit: 4; fill: rgb(203,194,255); fill-rule: nonzero; opacity: 1;" vector-effect="non-scaling-stroke"  transform=" translate(-32, -31)" d="M 52 34 C 52 35.105 51.105 36 50 36 C 48.895 36 48 35.105 48 34 C 48 32.895 48.895 32 50 32 C 51.105 32 52 32.895 52 34 L 52 34 z M 40 34 C 40 35.105 39.105 36 38 36 C 36.895 36 36 35.105 36 34 C 36 32.895 36.895 32 38 32 C 39.105 32 40 32.895 40 34 L 40 34 z M 14 18.499 C 14 17.12 15.12 16 16.5 16 C 17.882 16 19.001 17.12 19.001 18.499 C 19.001 19.881 17.881 20.999 16.5 20.999 C 15.12 20.999 14 19.881 14 18.499 L 14 18.499 z M 29.001 18.499 C 29.001 17.119999999999997 30.119 15.999999999999998 31.501 15.999999999999998 C 32.88 16 34 17.12 34 18.499 C 34 19.881 32.88 20.999 31.501 20.999 C 30.119 20.999 29.001 19.881 29.001 18.499 L 29.001 18.499 z M 58.606 50.27 L 59.529 53.733000000000004 C 59.939 55.559000000000005 58.845000000000006 57.399 57.023 57.883 C 55.959 58.164 54.879000000000005 57.924 54.05500000000001 57.322 C 54.053000000000004 57.32 54.05500000000001 57.326 54.053000000000004 57.322 L 50.712 54.937000000000005 C 48.613 55.611 46.358 56 44 56 C 39.104 56 34.64 54.396 31.171 51.764 C 30.532999999999998 51.43 30.095 50.768 30.095 50 C 30.095 48.895 30.99 48 32.095 48 C 32.563 48 32.987 48.166 33.326 48.436 C 33.331 48.432 33.336 48.424 33.341 48.42 C 36.172 50.639 39.9 52 44 52 C 45.554 52 47.045 51.781 48.463 51.416 C 48.679 51.379 48.941 51.318 49.317 51.199 C 50.674 50.772999999999996 52.083 51.050999999999995 53.157 51.824 L 55.501999999999995 53.5 L 54.8 50.873 C 54.497 49.656 54.843999999999994 48.315999999999995 55.83 47.408 C 55.867 47.375 55.891 47.338 55.922 47.304 C 58.448 44.828 60 41.578 60 38 C 60 30.27 52.836 24 44 24 C 35.164 24 28 30.27 28 38 C 28 38.506 28.034 39.006 28.095 39.498 C 28.331999999999997 42.727 25.971 45.577999999999996 22.732 45.908 C 22.555 45.924 22.383 45.924 22.211 45.928000000000004 C 19.924999999999997 45.772000000000006 17.726 45.342000000000006 15.660999999999998 44.672000000000004 L 11.946999999999997 47.322 C 11.944999999999997 47.326 11.946999999999997 47.32 11.944999999999997 47.322 C 11.120999999999997 47.924 10.041999999999996 48.164 8.977999999999996 47.883 C 7.154999999999996 47.399 6.060999999999996 45.559000000000005 6.4709999999999965 43.733000000000004 L 7.423999999999997 40.163000000000004 C 2.858 36.34 0 30.968 0 25.001 C 0 13.401 10.744 4 24 4 C 31.894 4 38.875 7.353 43.248000000000005 12.499 C 43.668000000000006 12.868 43.93600000000001 13.398 43.93600000000001 14 C 43.93600000000001 15.105 43.04200000000001 16 41.93600000000001 16 C 41.306000000000004 16 40.75300000000001 15.704 40.385000000000005 15.248 L 40.37500000000001 15.258 C 36.759 10.873 30.778 8 24 8 C 12.955 8 4 15.612 4 25.001 C 4 29.871000000000002 6.429 34.246 10.293 37.342 C 10.315 37.365 10.322 37.387 10.346 37.406 C 11.255 38.119 11.602 39.269 11.347 40.321999999999996 L 10.5 43.5 L 13.945 41.039 C 14.631 40.574 15.518 40.422000000000004 16.364 40.709 C 16.398 40.723000000000006 16.427 40.715 16.461000000000002 40.725 C 18.056 41.28 19.751 41.672000000000004 21.521 41.862 C 22.793 41.883 23.902 40.948 24.047 39.657000000000004 C 24.064 39.511 24.069 39.36600000000001 24.059 39.221000000000004 C 24.057000000000002 39.182 24.069000000000003 39.166000000000004 24.076 39.139 C 24.046 38.758 24 38.385 24 38 C 24 28.058999999999997 32.955 20 44 20 C 55.045 20 64 28.058999999999997 64 38 C 64 42.746 61.941 47.051 58.606 50.27 L 58.606 50.27 z" stroke-linecap="round" />
</g>
<g transform="matrix(14.86 0 0 14.86 538 539)"  >
<path style="stroke: rgb(0,0,0); stroke-width: 0; stroke-dasharray: none; stroke-linecap: butt; stroke-dashoffset: 0; stroke-linejoin: miter; stroke-miterlimit: 4; fill: rgb(210,145,255); fill-rule: nonzero; opacity: 1;" vector-effect="non-scaling-stroke"  transform=" translate(-32, -31)" d="M 52 34 C 52 35.105 51.105 36 50 36 C 48.895 36 48 35.105 48 34 C 48 32.895 48.895 32 50 32 C 51.105 32 52 32.895 52 34 L 52 34 z M 40 34 C 40 35.105 39.105 36 38 36 C 36.895 36 36 35.105 36 34 C 36 32.895 36.895 32 38 32 C 39.105 32 40 32.895 40 34 L 40 34 z M 14 18.499 C 14 17.12 15.12 16 16.5 16 C 17.882 16 19.001 17.12 19.001 18.499 C 19.001 19.881 17.881 20.999 16.5 20.999 C 15.12 20.999 14 19.881 14 18.499 L 14 18.499 z M 29.001 18.499 C 29.001 17.119999999999997 30.119 15.999999999999998 31.501 15.999999999999998 C 32.88 16 34 17.12 34 18.499 C 34 19.881 32.88 20.999 31.501 20.999 C 30.119 20.999 29.001 19.881 29.001 18.499 L 29.001 18.499 z M 58.606 50.27 L 59.529 53.733000000000004 C 59.939 55.559000000000005 58.845000000000006 57.399 57.023 57.883 C 55.959 58.164 54.879000000000005 57.924 54.05500000000001 57.322 C 54.053000000000004 57.32 54.05500000000001 57.326 54.053000000000004 57.322 L 50.712 54.937000000000005 C 48.613 55.611 46.358 56 44 56 C 39.104 56 34.64 54.396 31.171 51.764 C 30.532999999999998 51.43 30.095 50.768 30.095 50 C 30.095 48.895 30.99 48 32.095 48 C 32.563 48 32.987 48.166 33.326 48.436 C 33.331 48.432 33.336 48.424 33.341 48.42 C 36.172 50.639 39.9 52 44 52 C 45.554 52 47.045 51.781 48.463 51.416 C 48.679 51.379 48.941 51.318 49.317 51.199 C 50.674 50.772999999999996 52.083 51.050999999999995 53.157 51.824 L 55.501999999999995 53.5 L 54.8 50.873 C 54.497 49.656 54.843999999999994 48.315999999999995 55.83 47.408 C 55.867 47.375 55.891 47.338 55.922 47.304 C 58.448 44.828 60 41.578 60 38 C 60 30.27 52.836 24 44 24 C 35.164 24 28 30.27 28 38 C 28 38.506 28.034 39.006 28.095 39.498 C 28.331999999999997 42.727 25.971 45.577999999999996 22.732 45.908 C 22.555 45.924 22.383 45.924 22.211 45.928000000000004 C 19.924999999999997 45.772000000000006 17.726 45.342000000000006 15.660999999999998 44.672000000000004 L 11.946999999999997 47.322 C 11.944999999999997 47.326 11.946999999999997 47.32 11.944999999999997 47.322 C 11.120999999999997 47.924 10.041999999999996 48.164 8.977999999999996 47.883 C 7.154999999999996 47.399 6.060999999999996 45.559000000000005 6.4709999999999965 43.733000000000004 L 7.423999999999997 40.163000000000004 C 2.858 36.34 0 30.968 0 25.001 C 0 13.401 10.744 4 24 4 C 31.894 4 38.875 7.353 43.248000000000005 12.499 C 43.668000000000006 12.868 43.93600000000001 13.398 43.93600000000001 14 C 43.93600000000001 15.105 43.04200000000001 16 41.93600000000001 16 C 41.306000000000004 16 40.75300000000001 15.704 40.385000000000005 15.248 L 40.37500000000001 15.258 C 36.759 10.873 30.778 8 24 8 C 12.955 8 4 15.612 4 25.001 C 4 29.871000000000002 6.429 34.246 10.293 37.342 C 10.315 37.365 10.322 37.387 10.346 37.406 C 11.255 38.119 11.602 39.269 11.347 40.321999999999996 L 10.5 43.5 L 13.945 41.039 C 14.631 40.574 15.518 40.422000000000004 16.364 40.709 C 16.398 40.723000000000006 16.427 40.715 16.461000000000002 40.725 C 18.056 41.28 19.751 41.672000000000004 21.521 41.862 C 22.793 41.883 23.902 40.948 24.047 39.657000000000004 C 24.064 39.511 24.069 39.36600000000001 24.059 39.221000000000004 C 24.057000000000002 39.182 24.069000000000003 39.166000000000004 24.076 39.139 C 24.046 38.758 24 38.385 24 38 C 24 28.058999999999997 32.955 20 44 20 C 55.045 20 64 28.058999999999997 64 38 C 64 42.746 61.941 47.051 58.606 50.27 L 58.606 50.27 z" stroke-linecap="round" />
</g>
<g transform="matrix(0 0 0 0 0 0)"  >
<path style="stroke: none; stroke-width: 1; stroke-dasharray: none; stroke-linecap: butt; stroke-dashoffset: 0; stroke-linejoin: miter; stroke-miterlimit: 4; fill: rgb(123,179,46); fill-rule: evenodd; opacity: 1;"  transform=" translate(-32, -31)" d="M 52 34 C 52.01639507984404 34.725007680708075 51.63904769588384 35.40208828468686 51.01382390670269 35.76951194909998 C 50.38860011752154 36.13693561351309 49.613468415876405 36.137129444896345 48.98806094712716 35.77001851648171 C 48.36265347837791 35.40290758806709 47.98496751667267 34.726015789626096 48.001 34.001 C 48.0250344888973 32.914120095597696 48.912865477994885 32.04548768452204 50.000011056721725 32.04521583016376 C 51.087156635448565 32.044943975805495 51.97542193829634 32.91313225177439 52 34 z M 40 34 C 40.01639507984404 34.725007680708075 39.63904769588384 35.40208828468686 39.01382390670269 35.76951194909998 C 38.38860011752154 36.13693561351309 37.613468415876405 36.137129444896345 36.98806094712716 35.77001851648171 C 36.36265347837791 35.40290758806709 35.98496751667267 34.726015789626096 36.001 34.001 C 36.0250344888973 32.914120095597696 36.912865477994885 32.04548768452204 38.000011056721725 32.04521583016376 C 39.087156635448565 32.044943975805495 39.97542193829634 32.91313225177439 40 34 z M 14 18.499 C 14.000535898384863 17.605657392434637 14.477623696478608 16.780460680004552 15.251549038105676 16.33425347783701 C 16.025474379732746 15.888046275669465 16.978659594863473 15.88861807243919 17.752049038105678 16.33575347783701 C 18.525438481347884 16.78288888323483 19.001535898384866 17.608657392434637 19.001 18.502000000000002 C 19.00044771525017 19.8829880169519 17.8804880169519 21.00205228474983 16.4995 21.0015 C 15.118511983048103 21.00094771525017 13.99944771525017 19.8809880169519 14 18.5 z M 29.000999999999998 18.499 C 28.982899230769014 17.594097299875852 29.455302789379758 16.75007786835876 30.23609388821953 16.292320515046647 C 31.0168849870593 15.834563161734536 31.984115012940695 15.834563161734536 32.76490611178047 16.292320515046647 C 33.54569721062024 16.75007786835876 34.01810076923098 17.59409729987585 34 18.498999999999995 C 33.972776850652366 19.859953285252832 32.8617255303589 20.949002500062473 31.500500000000002 20.949002500062473 C 30.139274469641094 20.949002500062473 29.02822314934763 19.859953285252832 29.001 18.499 z M 58.606 50.27 L 59.529 53.733000000000004 C 59.94420979601826 55.56493180782058 58.83758007177113 57.39753889306622 57.023 57.883 C 55.999715922397954 58.15390687789934 54.908809384168705 57.94770789948067 54.05500000000001 57.322 C 54.053000000000004 57.32 54.05500000000001 57.326 54.053000000000004 57.322 L 50.712 54.937000000000005 C 48.54351444918268 55.63803378046018 46.2789837397703 55.996674445553346 44 56 C 39.104 56 34.64 54.396 31.171 51.764 C 30.511249396746816 51.4228703289576 30.096375345046507 50.7427236494043 30.095 50 C 30.095 48.89543050033841 30.990430500338412 48 32.095 48 C 32.563 48 32.987 48.166 33.326 48.436 L 33.341 48.42 C 36.172 50.639 39.9 52 44 52 C 45.5063418412427 51.99432199971445 47.005914031368356 51.798097451421064 48.463 51.416 C 48.679 51.379 48.941 51.318 49.317 51.199 C 50.62386008856001 50.78900113097871 52.047611805223916 51.02073155361281 53.157 51.824 L 55.501999999999995 53.5 L 54.8 50.873 C 54.48285395209949 49.61652876998423 54.87800539066809 48.28720863926558 55.83 47.408 C 55.867 47.375 55.891 47.338 55.922 47.304 C 58.448 44.828 60 41.578 60 38 C 60 30.27 52.836 24 44 24 C 35.164 24 28 30.27 28 38 C 28 38.506 28.034 39.006 28.095 39.498 C 28.331999999999997 42.727 25.971 45.577999999999996 22.732 45.908 C 22.555 45.924 22.383 45.924 22.211 45.928000000000004 C 19.984452318623084 45.779282463603806 17.784625566176086 45.35745308939413 15.660999999999994 44.672000000000004 L 11.946999999999997 47.322 C 11.944999999999997 47.326 11.946999999999997 47.32 11.944999999999997 47.322 C 11.091557547035451 47.94767361648977 10.00096327839318 48.153883048477745 8.977999999999994 47.883 C 7.163015888704282 47.39797372109723 6.055864229399726 45.56523363888187 6.4709999999999965 43.733000000000004 L 7.423999999999997 40.163000000000004 C 2.858 36.34 0 30.968 0 25.001 C 0 13.401 10.744 4 24 4 C 31.894 4 38.875 7.353 43.248000000000005 12.499 C 43.668000000000006 12.868 43.93600000000001 13.398 43.93600000000001 14 C 43.93600000000001 15.105 43.04200000000001 16 41.93600000000001 16 C 41.306000000000004 16 40.75300000000001 15.704 40.385000000000005 15.248 L 40.37500000000001 15.258 C 36.759 10.873 30.778 8 24 8 C 12.955 8 4 15.612 4 25.001 C 4 29.871000000000002 6.429 34.246 10.293 37.342 C 10.315 37.365 10.322 37.387 10.346 37.406 C 11.22370090307433 38.096838361126856 11.615350253564634 39.23774695855914 11.347 40.321999999999996 L 10.5 43.5 L 13.945 41.039 C 14.654719378871057 40.555097754978135 15.550598639223669 40.43288189887381 16.364 40.709 C 16.398 40.723000000000006 16.427 40.715 16.461000000000002 40.725 C 18.056 41.28 19.751 41.672000000000004 21.521 41.862 C 22.216607490755095 41.87639905995614 22.88653680052676 41.59922371477861 23.36863122421292 41.09756438737311 C 23.850725647899075 40.59590505996762 24.101045230827737 39.91548492617685 24.059 39.221000000000004 C 24.057000000000002 39.182 24.069000000000003 39.166000000000004 24.076 39.139 C 24.046 38.758 24 38.385000000000005 24 38 C 24 28.058999999999997 32.955 20 44 20 C 55.045 20 64 28.058999999999997 64 38 C 64 42.746 61.941 47.051 58.606 50.269999999999996 z" stroke-linecap="round" />
</g>
<g transform="matrix(0 0 0 0 0 0)"  >
<path style="stroke: none; stroke-width: 1; stroke-dasharray: none; stroke-linecap: butt; stroke-dashoffset: 0; stroke-linejoin: miter; stroke-miterlimit: 4; fill: rgb(123,179,46); fill-rule: evenodd; opacity: 1;"  transform=" translate(-32, -31)" d="M 52 34 C 52.01639507984404 34.725007680708075 51.63904769588384 35.40208828468686 51.01382390670269 35.76951194909998 C 50.38860011752154 36.13693561351309 49.613468415876405 36.137129444896345 48.98806094712716 35.77001851648171 C 48.36265347837791 35.40290758806709 47.98496751667267 34.726015789626096 48.001 34.001 C 48.0250344888973 32.914120095597696 48.912865477994885 32.04548768452204 50.000011056721725 32.04521583016376 C 51.087156635448565 32.044943975805495 51.97542193829634 32.91313225177439 52 34 z M 40 34 C 40.01639507984404 34.725007680708075 39.63904769588384 35.40208828468686 39.01382390670269 35.76951194909998 C 38.38860011752154 36.13693561351309 37.613468415876405 36.137129444896345 36.98806094712716 35.77001851648171 C 36.36265347837791 35.40290758806709 35.98496751667267 34.726015789626096 36.001 34.001 C 36.0250344888973 32.914120095597696 36.912865477994885 32.04548768452204 38.000011056721725 32.04521583016376 C 39.087156635448565 32.044943975805495 39.97542193829634 32.91313225177439 40 34 z M 14 18.499 C 14.000535898384863 17.605657392434637 14.477623696478608 16.780460680004552 15.251549038105676 16.33425347783701 C 16.025474379732746 15.888046275669465 16.978659594863473 15.88861807243919 17.752049038105678 16.33575347783701 C 18.525438481347884 16.78288888323483 19.001535898384866 17.608657392434637 19.001 18.502000000000002 C 19.00044771525017 19.8829880169519 17.8804880169519 21.00205228474983 16.4995 21.0015 C 15.118511983048103 21.00094771525017 13.99944771525017 19.8809880169519 14 18.5 z M 29.000999999999998 18.499 C 28.982899230769014 17.594097299875852 29.455302789379758 16.75007786835876 30.23609388821953 16.292320515046647 C 31.0168849870593 15.834563161734536 31.984115012940695 15.834563161734536 32.76490611178047 16.292320515046647 C 33.54569721062024 16.75007786835876 34.01810076923098 17.59409729987585 34 18.498999999999995 C 33.972776850652366 19.859953285252832 32.8617255303589 20.949002500062473 31.500500000000002 20.949002500062473 C 30.139274469641094 20.949002500062473 29.02822314934763 19.859953285252832 29.001 18.499 z M 58.606 50.27 L 59.529 53.733000000000004 C 59.94420979601826 55.56493180782058 58.83758007177113 57.39753889306622 57.023 57.883 C 55.999715922397954 58.15390687789934 54.908809384168705 57.94770789948067 54.05500000000001 57.322 C 54.053000000000004 57.32 54.05500000000001 57.326 54.053000000000004 57.322 L 50.712 54.937000000000005 C 48.54351444918268 55.63803378046018 46.2789837397703 55.996674445553346 44 56 C 39.104 56 34.64 54.396 31.171 51.764 C 30.511249396746816 51.4228703289576 30.096375345046507 50.7427236494043 30.095 50 C 30.095 48.89543050033841 30.990430500338412 48 32.095 48 C 32.563 48 32.987 48.166 33.326 48.436 L 33.341 48.42 C 36.172 50.639 39.9 52 44 52 C 45.5063418412427 51.99432199971445 47.005914031368356 51.798097451421064 48.463 51.416 C 48.679 51.379 48.941 51.318 49.317 51.199 C 50.62386008856001 50.78900113097871 52.047611805223916 51.02073155361281 53.157 51.824 L 55.501999999999995 53.5 L 54.8 50.873 C 54.48285395209949 49.61652876998423 54.87800539066809 48.28720863926558 55.83 47.408 C 55.867 47.375 55.891 47.338 55.922 47.304 C 58.448 44.828 60 41.578 60 38 C 60 30.27 52.836 24 44 24 C 35.164 24 28 30.27 28 38 C 28 38.506 28.034 39.006 28.095 39.498 C 28.331999999999997 42.727 25.971 45.577999999999996 22.732 45.908 C 22.555 45.924 22.383 45.924 22.211 45.928000000000004 C 19.984452318623084 45.779282463603806 17.784625566176086 45.35745308939413 15.660999999999994 44.672000000000004 L 11.946999999999997 47.322 C 11.944999999999997 47.326 11.946999999999997 47.32 11.944999999999997 47.322 C 11.091557547035451 47.94767361648977 10.00096327839318 48.153883048477745 8.977999999999994 47.883 C 7.163015888704282 47.39797372109723 6.055864229399726 45.56523363888187 6.4709999999999965 43.733000000000004 L 7.423999999999997 40.163000000000004 C 2.858 36.34 0 30.968 0 25.001 C 0 13.401 10.744 4 24 4 C 31.894 4 38.875 7.353 43.248000000000005 12.499 C 43.668000000000006 12.868 43.93600000000001 13.398 43.93600000000001 14 C 43.93600000000001 15.105 43.04200000000001 16 41.93600000000001 16 C 41.306000000000004 16 40.75300000000001 15.704 40.385000000000005 15.248 L 40.37500000000001 15.258 C 36.759 10.873 30.778 8 24 8 C 12.955 8 4 15.612 4 25.001 C 4 29.871000000000002 6.429 34.246 10.293 37.342 C 10.315 37.365 10.322 37.387 10.346 37.406 C 11.22370090307433 38.096838361126856 11.615350253564634 39.23774695855914 11.347 40.321999999999996 L 10.5 43.5 L 13.945 41.039 C 14.654719378871057 40.555097754978135 15.550598639223669 40.43288189887381 16.364 40.709 C 16.398 40.723000000000006 16.427 40.715 16.461000000000002 40.725 C 18.056 41.28 19.751 41.672000000000004 21.521 41.862 C 22.216607490755095 41.87639905995614 22.88653680052676 41.59922371477861 23.36863122421292 41.09756438737311 C 23.850725647899075 40.59590505996762 24.101045230827737 39.91548492617685 24.059 39.221000000000004 C 24.057000000000002 39.182 24.069000000000003 39.166000000000004 24.076 39.139 C 24.046 38.758 24 38.385000000000005 24 38 C 24 28.058999999999997 32.955 20 44 20 C 55.045 20 64 28.058999999999997 64 38 C 64 42.746 61.941 47.051 58.606 50.269999999999996 z" stroke-linecap="round" />
</g>
</svg>